<svg width="37" height="35" viewBox="0 0 37 35" fill="none" xmlns="http://www.w3.org/2000/svg">
<path d="M35.9989 25.7068V30.6747C36.0009 31.1359 35.9005 31.5923 35.7042 32.0149C35.5078 32.4375 35.2199 32.8168 34.8587 33.1286C34.4976 33.4403 34.0712 33.6777 33.6069 33.8254C33.1426 33.9732 32.6507 34.0281 32.1626 33.9866C26.7474 33.4329 21.5458 31.6917 16.9756 28.9028C12.7236 26.3604 9.11871 22.9682 6.41684 18.9672C3.44276 14.6471 1.59192 9.72863 1.01428 4.61012C0.970307 4.15219 1.02814 3.69067 1.1841 3.25493C1.34007 2.8192 1.59074 2.41879 1.92016 2.07921C2.24959 1.73963 2.65055 1.46831 3.09751 1.28254C3.54447 1.09676 4.02764 1.00059 4.51627 1.00016H9.79564C10.6497 0.992251 11.4776 1.27683 12.1252 1.80086C12.7727 2.32489 13.1957 3.05261 13.3152 3.84838C13.538 5.4382 13.9513 6.99919 14.5471 8.50159C14.7838 9.09429 14.8351 9.73843 14.6947 10.3577C14.5544 10.977 14.2283 11.5454 13.7552 11.9956L11.5202 14.0987C14.0254 18.2444 17.6733 21.677 22.079 24.0343L24.3139 21.9313C24.7924 21.4861 25.3964 21.1792 26.0545 21.0472C26.7127 20.9151 27.3972 20.9633 28.0271 21.1861C29.6237 21.7467 31.2826 22.1356 32.9721 22.3453C33.8269 22.4588 34.6076 22.8639 35.1657 23.4837C35.7238 24.1035 36.0203 24.8947 35.9989 25.7068Z" stroke="white" stroke-width="2" stroke-linecap="round" stroke-linejoin="round"/>
</svg>
