<svg width="439" height="422" viewBox="0 0 439 422" fill="none" xmlns="http://www.w3.org/2000/svg">
<path d="M423.321 361.714H15.6786C11.5204 361.714 7.53245 363.302 4.59215 366.129C1.65185 368.955 0 372.789 0 376.786L0 406.929C0 410.926 1.65185 414.759 4.59215 417.586C7.53245 420.412 11.5204 422 15.6786 422H423.321C427.48 422 431.468 420.412 434.408 417.586C437.348 414.759 439 410.926 439 406.929V376.786C439 372.789 437.348 368.955 434.408 366.129C431.468 363.302 427.48 361.714 423.321 361.714ZM423.321 241.143H15.6786C11.5204 241.143 7.53245 242.731 4.59215 245.557C1.65185 248.384 0 252.217 0 256.214L0 286.357C0 290.354 1.65185 294.188 4.59215 297.014C7.53245 299.841 11.5204 301.429 15.6786 301.429H423.321C427.48 301.429 431.468 299.841 434.408 297.014C437.348 294.188 439 290.354 439 286.357V256.214C439 252.217 437.348 248.384 434.408 245.557C431.468 242.731 427.48 241.143 423.321 241.143ZM423.321 120.571H15.6786C11.5204 120.571 7.53245 122.159 4.59215 124.986C1.65185 127.812 0 131.646 0 135.643L0 165.786C0 169.783 1.65185 173.616 4.59215 176.443C7.53245 179.269 11.5204 180.857 15.6786 180.857H423.321C427.48 180.857 431.468 179.269 434.408 176.443C437.348 173.616 439 169.783 439 165.786V135.643C439 131.646 437.348 127.812 434.408 124.986C431.468 122.159 427.48 120.571 423.321 120.571ZM423.321 0H15.6786C11.5204 0 7.53245 1.58788 4.59215 4.41432C1.65185 7.24076 0 11.0742 0 15.0714L0 45.2143C0 49.2115 1.65185 53.045 4.59215 55.8714C7.53245 58.6978 11.5204 60.2857 15.6786 60.2857H423.321C427.48 60.2857 431.468 58.6978 434.408 55.8714C437.348 53.045 439 49.2115 439 45.2143V15.0714C439 11.0742 437.348 7.24076 434.408 4.41432C431.468 1.58788 427.48 0 423.321 0Z" fill="white"/>
</svg>
